<svg width="108" height="44" viewBox="0 0 108 44" fill="none" xmlns="http://www.w3.org/2000/svg">
<g clip-path="url(#clip0)">
<circle cx="10" cy="32" r="8" fill="#B8B8B8" stroke="white" stroke-width="2"/>
<circle cx="26" cy="32" r="8" fill="#555555" stroke="white" stroke-width="2"/>
<circle cx="26" cy="16" r="8" fill="#555555" stroke="white" stroke-width="2"/>
<circle cx="42" cy="32" r="8" fill="#010101" stroke="white" stroke-width="2" stroke-linecap="round" stroke-linejoin="round"/>
<circle cx="42" cy="16" r="8" fill="#010101" stroke="white" stroke-width="2"/>
<path d="M52 7C51.4477 7 51 7.44772 51 8V39C51 39.5523 51.4477 40 52 40H74.9474C75.4997 40 75.9474 39.5523 75.9474 39V34.4074V21.5V15.5C75.9474 14.9477 75.4997 14.5 74.9474 14.5H60.8947V8C60.8947 7.44772 60.447 7 59.8947 7H52Z" fill="black" stroke="white" stroke-width="2" stroke-linecap="round" stroke-linejoin="round"/>
<path d="M74 15C73.4477 15 73 15.4477 73 16V20.0588C73 20.6111 73.4477 21.0588 74 21.0588H78V33.4902H74C73.4477 33.4902 73 33.9379 73 34.4902V39C73 39.5523 73.4477 40 74 40H92C92.5523 40 93 39.5523 93 39V34.4902C93 33.9379 92.5523 33.4902 92 33.4902H88.1351V16C88.1351 15.4477 87.6874 15 87.1351 15H74Z" fill="black" stroke="white" stroke-width="2" stroke-linecap="round" stroke-linejoin="round"/>
<path d="M67 32H61V22H67V32Z" fill="black" stroke="white" stroke-width="2"/>
<rect x="76" y="7" width="11" height="6" fill="black" stroke="white" stroke-width="2"/>
<path d="M93 7C92.4477 7 92 7.44772 92 8V14H89C88.4477 14 88 14.4477 88 15V19.5C88 20.0523 88.4477 20.5 89 20.5H92V33C92 33.5523 92.4477 34 93 34H96V38.5C96 39.0523 96.4477 39.5 97 39.5H109.5C110.052 39.5 110.5 39.0523 110.5 38.5V33C110.5 32.4477 110.052 32 109.5 32H103V20.5H109.5C110.052 20.5 110.5 20.0523 110.5 19.5V15C110.5 14.4477 110.052 14 109.5 14H103V8C103 7.44772 102.552 7 102 7H93Z" fill="black" stroke="white" stroke-width="2" stroke-linecap="round" stroke-linejoin="round"/>
<circle cx="24" cy="14" r="2" fill="url(#paint0_linear)" fill-opacity="0.5"/>
<circle cx="40" cy="14" r="2" fill="url(#paint1_linear)" fill-opacity="0.5"/>
<circle cx="24" cy="29" r="2" fill="url(#paint2_linear)" fill-opacity="0.5"/>
<circle cx="8" cy="29" r="2" fill="url(#paint3_linear)" fill-opacity="0.5"/>
<circle cx="40" cy="29" r="2" fill="url(#paint4_linear)" fill-opacity="0.5"/>
</g>
<defs>
<linearGradient id="paint0_linear" x1="22.5" y1="13" x2="25.5" y2="15" gradientUnits="userSpaceOnUse">
<stop stop-color="white"/>
<stop offset="1" stop-color="#555555"/>
</linearGradient>
<linearGradient id="paint1_linear" x1="38.5" y1="13" x2="41.5" y2="15" gradientUnits="userSpaceOnUse">
<stop stop-color="white"/>
<stop offset="1" stop-color="#010101"/>
</linearGradient>
<linearGradient id="paint2_linear" x1="22.5" y1="28" x2="25.5" y2="30" gradientUnits="userSpaceOnUse">
<stop stop-color="white"/>
<stop offset="1" stop-color="#555555"/>
</linearGradient>
<linearGradient id="paint3_linear" x1="6.5" y1="28" x2="9.5" y2="30" gradientUnits="userSpaceOnUse">
<stop offset="0.541667" stop-color="white"/>
<stop offset="1" stop-color="#B8B8B8"/>
</linearGradient>
<linearGradient id="paint4_linear" x1="38.5" y1="28" x2="41.5" y2="30" gradientUnits="userSpaceOnUse">
<stop stop-color="white"/>
<stop offset="1" stop-color="#010101"/>
</linearGradient>
<clipPath id="clip0">
<rect width="108" height="44" fill="white"/>
</clipPath>
</defs>
</svg>
